<?xml version="1.0" encoding="utf-8"?>
<!-- Generator: Adobe Illustrator 19.0.0, SVG Export Plug-In . SVG Version: 6.00 Build 0)  -->
<svg version="1.1" id="Layer_1" xmlns="http://www.w3.org/2000/svg" xmlns:xlink="http://www.w3.org/1999/xlink" x="0px" y="0px"
	 viewBox="-223 25 512 512" style="enable-background:new -223 25 512 512;" xml:space="preserve">
<style type="text/css">
	.st0{fill:#F2D383;}
	.st1{fill:#D9A460;}
	.st2{fill:#5A3C3D;}
	.st3{fill:#00B3E3;}
	.st4{fill:#0091B8;}
</style>
<path class="st0" d="M-176.3,355.7l61.8-192.2c4.1-12.6,18.2-22.9,31.4-22.9h232c13.2,0,27.4,10.3,31.4,22.9l61.8,192.2H-176.3z"/>
<path class="st1" d="M180.4,163.4c-4-12.6-18.2-22.9-31.4-22.9H-83c-13.2,0-27.4,10.3-31.4,22.9l-13.8,42.9h322.5L180.4,163.4z"/>
<path class="st2" d="M-51.2,140.6v61c0,10.8,8.8,19.6,19.6,19.6c10.8,0,19.6-8.8,19.6-19.6v-15c0-10.8,8.8-19.6,19.6-19.6
	c10.8,0,19.6,8.8,19.6,19.6v76.9c0,10.8,8.8,19.6,19.6,19.6c10.8,0,19.6-8.8,19.6-19.6v-58.1c0-10.8,8.8-19.6,19.6-19.6
	c10.8,0,19.6,8.8,19.6,19.6v23.3c0,10.8,8.8,19.6,19.6,19.6c10.8,0,19.6-8.8,19.6-19.6v-88.1L-51.2,140.6L-51.2,140.6z"/>
<polygon class="st3" points="242.3,397.4 -176.3,397.4 -215.1,351.6 281.1,351.6 "/>
<rect x="-176.3" y="397.4" class="st4" width="418.5" height="24"/>
<path d="M288.3,348.3c-1.3-2.8-4.1-4.6-7.2-4.6h-34.3L188,161c-5.1-15.9-22.2-28.4-39-28.4H-83c-16.7,0-33.8,12.5-39,28.4
	l-58.8,182.7h-34.3c-3.1,0-5.9,1.8-7.2,4.6c-1.3,2.8-0.9,6.1,1.1,8.5l36.9,43.5v21.1c0,4.4,3.6,7.9,7.9,7.9h418.5
	c4.4,0,7.9-3.6,7.9-7.9v-21.1l36.9-43.5C289.1,354.4,289.6,351.1,288.3,348.3z M-43.3,148.5h180.2v80.2c0,6.4-5.2,11.7-11.7,11.7
	c-6.4,0-11.7-5.2-11.7-11.7v-23.3c0-15.2-12.4-27.5-27.5-27.5c-15.2,0-27.5,12.4-27.5,27.5v58.1c0,6.4-5.2,11.7-11.7,11.7
	c-6.4,0-11.7-5.2-11.7-11.7v-76.9c0-15.2-12.4-27.5-27.5-27.5C-7.6,159-20,171.3-20,186.5v15c0,6.4-5.2,11.7-11.7,11.7
	c-6.4,0-11.7-5.2-11.7-11.7L-43.3,148.5L-43.3,148.5L-43.3,148.5z M-106.9,165.9c3-9.3,14.1-17.4,23.9-17.4h23.8v53
	c0,15.2,12.4,27.5,27.5,27.5s27.5-12.4,27.5-27.5v-15c0-6.4,5.2-11.7,11.7-11.7c6.4,0,11.7,5.2,11.7,11.7v76.9
	c0,15.2,12.4,27.5,27.5,27.5c15.2,0,27.5-12.4,27.5-27.5v-58.1c0-6.4,5.2-11.7,11.7-11.7c6.4,0,11.7,5.2,11.7,11.7v23.3
	c0,15.2,12.4,27.5,27.5,27.5c15.2,0,27.5-12.4,27.5-27.5v-79.8c8.7,1.7,17.5,8.9,20.1,17l57.2,177.8h-394.1L-106.9,165.9z
	 M234.3,413.5h-402.7v-8.2h402.7V413.5z M238.6,389.5h-411.2l-25.3-29.9h461.8L238.6,389.5z"/>
<path d="M-109.5,242.1c-7.1,0-12.9,5.8-12.9,12.9v12.6c0,7.1,5.8,12.9,12.9,12.9c7.1,0,12.9-5.8,12.9-12.9V255
	C-96.6,247.9-102.4,242.1-109.5,242.1z"/>
<path d="M-21.9,255v12.6c0,7.1,5.8,12.9,12.9,12.9s12.9-5.8,12.9-12.9V255c0-7.1-5.8-12.9-12.9-12.9
	C-16.1,242.1-21.9,247.9-21.9,255z"/>
<path d="M-71.8,330.9c12.7,0,21.8-8.8,25.1-14c2.7-4.2,1.5-9.8-2.7-12.5c-4.2-2.7-9.8-1.5-12.5,2.7c0,0.1-3.9,5.6-9.8,5.6
	c-5.8,0-9.4-5.3-9.6-5.6c-2.7-4.2-8.2-5.5-12.4-2.8c-4.2,2.6-5.6,8.2-2.9,12.5C-93.5,322.1-84.6,330.9-71.8,330.9z"/>
</svg>
